<svg xmlns="http://www.w3.org/2000/svg" version="1.1" xmlns:xlink="http://www.w3.org/1999/xlink" xmlns:svgjs="http://svgjs.dev/svgjs" width="2000" height="414" viewBox="0 0 2000 414"><g transform="matrix(1,0,0,1,-1.2121212121212466,0.35666822700699186)"><svg viewBox="0 0 396 82" data-background-color="#0b022d" preserveAspectRatio="xMidYMid meet" height="414" width="2000" xmlns="http://www.w3.org/2000/svg" xmlns:xlink="http://www.w3.org/1999/xlink"><g id="tight-bounds" transform="matrix(1,0,0,1,0.2400000000000091,-0.07064443143616472)"><svg viewBox="0 0 395.52 82.14128886287234" height="82.14128886287234" width="395.52"><g><svg viewBox="0 0 527.218839102921 109.49240229748497" height="82.14128886287234" width="395.52"><g transform="matrix(1,0,0,1,131.698839102921,31.230006358255512)"><svg viewBox="0 0 395.52 47.03238958097395" height="47.03238958097395" width="395.52"><g id="textblocktransform"><svg viewBox="0 0 395.52 47.03238958097395" height="47.03238958097395" width="395.52" id="textblock"><g><svg viewBox="0 0 395.52 47.03238958097395" height="47.03238958097395" width="395.52"><g transform="matrix(1,0,0,1,0,0)"><svg width="395.52" viewBox="2.8 -37.1 394.32 47.25" height="47.03238958097395" data-palette-color="#f7fff7"><g class="wordmark-text-0" data-fill-palette-color="primary" id="text-0"><path d="M6.7 0Q5.3 0 4.33-0.93 3.35-1.85 3.08-3.98 2.8-6.1 2.8-16.73 2.8-27.35 3.15-30.6L3.15-30.6Q3.55-34.8 6.7-34.9L6.7-34.9Q10.3-35 36.55-35L36.55-35Q39.5-35 39.5-31.25L39.5-31.25Q39.5-28.3 36.9-28.3L36.9-28.3 25.9-28.3Q24.85-28.3 24.23-27.6 23.6-26.9 23.6-25.8L23.6-25.8 23.6-22.2Q23.6-20.7 24.95-20.7L24.95-20.7 34.05-20.7Q34.85-20.7 35.27-20.55 35.7-20.4 36.05-19.68 36.4-18.95 36.4-17.3 36.4-15.65 35.83-15.1 35.25-14.55 33.95-14.55L33.95-14.55 25.8-14.55Q24.55-14.55 24.08-13.93 23.6-13.3 23.6-12L23.6-12 23.6-9.55Q23.6-7.4 25.65-7.4L25.65-7.4 38.1-7.4Q39-7.4 39.7-6.88 40.4-6.35 40.4-4.58 40.4-2.8 39.55-1.4 38.7 0 37.55 0L37.55 0 6.7 0ZM48.45-36.55L48.45-36.55 58.05-36.55Q59.7-36.55 60.25-35.77 60.8-35 60.95-33.3L60.95-33.3Q61.25-27.3 61.25-16.73 61.25-6.15 60.85-2.15L60.85-2.15Q60.75-1.35 60.05-0.7 59.35-0.05 57.57 0.08 55.8 0.2 53.4 0.2 51 0.2 49.1 0.1L49.1 0.1Q45.85-0.15 45.7-2.15L45.7-2.15Q45.2-6.5 45.2-17.57 45.2-28.65 45.6-33.3L45.6-33.3Q45.75-35 46.27-35.77 46.8-36.55 48.45-36.55ZM70.5-36.55L70.5-36.55 80.09-36.55Q81.75-36.55 82.3-35.77 82.84-35 83-33.3L83-33.3Q83.3-27.3 83.3-16.73 83.3-6.15 82.9-2.15L82.9-2.15Q82.8-1.35 82.09-0.7 81.4-0.05 79.62 0.08 77.84 0.2 75.45 0.2 73.05 0.2 71.15 0.1L71.15 0.1Q67.9-0.15 67.75-2.15L67.75-2.15Q67.25-6.5 67.25-17.57 67.25-28.65 67.65-33.3L67.65-33.3Q67.8-35 68.32-35.77 68.84-36.55 70.5-36.55ZM106.89-26.25L106.89-26.25Q123.19-26.25 123.34-15.65L123.34-15.65Q123.44-11.15 123.44-7.4 123.44-3.65 123.39-2.35 123.34-1.05 122.72-0.48 122.09 0.1 120.29 0.1L120.29 0.1 109.69 0.1Q108.09 0.1 107.49-0.48 106.89-1.05 106.84-2.2L106.84-2.2Q106.84-2.25 106.82-2.38 106.79-2.5 106.79-2.6L106.79-2.6Q103.49 0.8 97.79 0.8L97.79 0.8Q93.84 0.8 91.07-1.18 88.29-3.15 88.29-6.63 88.29-10.1 90.27-12.18 92.24-14.25 94.97-15 97.69-15.75 100.82-15.75 103.94-15.75 106.94-15.15L106.94-15.15 106.94-15.35Q106.94-17.85 105.97-18.95 104.99-20.05 102.82-20.05 100.64-20.05 99.19-19.68 97.74-19.3 96.99-18.9L96.99-18.9Q94.94-17.7 94.14-17.7 93.34-17.7 92.72-18.45 92.09-19.2 92.09-20.78 92.09-22.35 92.67-22.95 93.24-23.55 94.49-24.15L94.49-24.15Q98.84-26.25 106.89-26.25ZM104.54-5.8L104.54-5.8Q106.74-5.8 106.79-6.65L106.79-6.65Q106.89-8.3 106.89-11L106.89-11Q106.89-12.05 105.29-12.05 103.69-12.05 102.69-11.28 101.69-10.5 101.69-9 101.69-7.5 102.52-6.65 103.34-5.8 104.54-5.8Z" fill="#f7fff7" data-fill-palette-color="primary"></path><path d="M167.29-22.95L167.29-22.95 167.24-12.95Q167.24-10.75 167.91-9.68 168.59-8.6 170.74-8.6L170.74-8.6 183.39-8.6Q185.69-8.55 185.69-5.1L185.69-5.1Q185.69-2.45 185.04-1.25 184.39-0.05 182.39 0L182.39 0Q175.34 0.2 168.44 0.2 161.54 0.2 150.84 0.1L150.84 0.1Q149.04 0.1 147.91-0.78 146.79-1.65 146.64-3.2L146.64-3.2Q146.24-7.55 146.24-16.93 146.24-26.3 146.46-29.58 146.69-32.85 147.39-33.93 148.09-35 150.14-35L150.14-35 163.54-35Q165.64-35 166.31-33.9 166.99-32.8 167.14-30.35 167.29-27.9 167.29-22.95ZM196.24-23.93Q198.54-25.05 200.96-25.55 203.39-26.05 206.96-26.05 210.54-26.05 213.79-25.18 217.04-24.3 218.64-22.8L218.64-22.8Q221.44-20.05 221.44-16.35L221.44-16.35Q221.44-10.55 211.64-10.55L211.64-10.55Q208.19-10.55 204.49-11.2L204.49-11.2Q204.64-7.9 205.71-6.55 206.79-5.2 209.54-5.2 212.29-5.2 214.09-5.8 215.89-6.4 216.99-7.03 218.09-7.65 218.86-7.65 219.64-7.65 220.19-6.95L220.19-6.95Q221.04-6.05 221.04-4.48 221.04-2.9 220.41-2.33 219.79-1.75 218.44-1.2L218.44-1.2Q213.69 0.8 204.94 0.8L204.94 0.8Q197.69 0.8 193.01-2.68 188.34-6.15 188.34-12.05L188.34-12.05Q188.34-14.9 189.39-17.28 190.44-19.65 192.19-21.23 193.94-22.8 196.24-23.93ZM207.84-20.35L207.84-20.35Q204.79-20.35 204.54-15.4L204.54-15.4Q206.94-15.2 207.04-15.2L207.04-15.2Q210.34-15.2 210.34-17.4L210.34-17.4Q210.34-20.35 207.84-20.35ZM242.83-17.8L242.83-17.8Q239.88-17.8 239.88-13.48 239.88-9.15 242.73-9.15L242.73-9.15Q243.98-9.15 244.91-9.83 245.83-10.5 245.83-11.75L245.83-11.75 245.83-15.2Q245.83-16.4 244.91-17.1 243.98-17.8 242.83-17.8ZM261.63-23.05L261.63-23.05 261.73-7.7Q261.73-2.7 261.68-0.1 261.63 2.5 260.18 4.6 258.73 6.7 256.23 7.9L256.23 7.9Q251.33 10.15 243.18 10.15 235.03 10.15 229.83 7.95L229.83 7.95Q228.58 7.4 228.01 6.78 227.43 6.15 227.43 4.58 227.43 3 228.06 2.25 228.68 1.5 229.53 1.5 230.38 1.5 231.63 2.1L231.63 2.1Q235.48 4 239.33 4L239.33 4Q241.08 4 242.48 3.63 243.88 3.25 244.96 2.1 246.03 0.95 246.03-0.85L246.03-0.85 245.98-3.5Q245.98-4 245.68-4L245.68-4Q245.53-4 245.38-3.85L245.38-3.85Q241.38 0 236.58 0 231.78 0 228.56-3.05 225.33-6.1 225.33-12.7 225.33-19.3 229.13-22.68 232.93-26.05 238.43-26.05 243.93-26.05 246.58-22.6L246.58-22.6Q246.63-23.9 247.53-24.6 248.43-25.3 249.53-25.4 250.63-25.5 253.53-25.5L253.53-25.5 258.83-25.4Q259.78-25.4 260.71-24.73 261.63-24.05 261.63-23.05ZM285.33-26.25L285.33-26.25Q301.63-26.25 301.78-15.65L301.78-15.65Q301.88-11.15 301.88-7.4 301.88-3.65 301.83-2.35 301.78-1.05 301.16-0.48 300.53 0.1 298.73 0.1L298.73 0.1 288.13 0.1Q286.53 0.1 285.93-0.48 285.33-1.05 285.28-2.2L285.28-2.2Q285.28-2.25 285.26-2.38 285.23-2.5 285.23-2.6L285.23-2.6Q281.93 0.8 276.23 0.8L276.23 0.8Q272.28 0.8 269.51-1.18 266.73-3.15 266.73-6.63 266.73-10.1 268.71-12.18 270.68-14.25 273.41-15 276.13-15.75 279.26-15.75 282.38-15.75 285.38-15.15L285.38-15.15 285.38-15.35Q285.38-17.85 284.41-18.95 283.43-20.05 281.26-20.05 279.08-20.05 277.63-19.68 276.18-19.3 275.43-18.9L275.43-18.9Q273.38-17.7 272.58-17.7 271.78-17.7 271.16-18.45 270.53-19.2 270.53-20.78 270.53-22.35 271.11-22.95 271.68-23.55 272.93-24.15L272.93-24.15Q277.28-26.25 285.33-26.25ZM282.98-5.8L282.98-5.8Q285.18-5.8 285.23-6.65L285.23-6.65Q285.33-8.3 285.33-11L285.33-11Q285.33-12.05 283.73-12.05 282.13-12.05 281.13-11.28 280.13-10.5 280.13-9 280.13-7.5 280.96-6.65 281.78-5.8 282.98-5.8ZM318.88-6.55L318.88-6.55Q318.88-7.95 317.7-8.75 316.53-9.55 314.85-9.98 313.18-10.4 311.48-10.98 309.78-11.55 308.6-12.98 307.43-14.4 307.43-16.75L307.43-16.75Q307.43-26.05 321.88-26.05L321.88-26.05Q328.08-26.05 331.83-23.95L331.83-23.95Q333.03-23.3 333.53-22.73 334.03-22.15 334.03-20.7 334.03-19.25 333.45-18.53 332.88-17.8 332.3-17.8 331.73-17.8 329.8-18.93 327.88-20.05 325.83-20.1L325.83-20.1Q324.18-20.1 324.18-18.45L324.18-18.45Q324.18-17.35 325.33-16.7 326.48-16.05 328.13-15.58 329.78-15.1 331.43-14.43 333.08-13.75 334.23-12.18 335.38-10.6 335.38-8.2L335.38-8.2Q335.38 1.1 320.93 1.1L320.93 1.1Q313.88 1.1 309.43-0.95L309.43-0.95Q308.08-1.5 307.48-2.08 306.88-2.65 306.88-4.17 306.88-5.7 307.5-6.35 308.13-7 308.55-7 308.98-7 311.43-5.9 313.88-4.8 316.38-4.8 318.88-4.8 318.88-6.55ZM359.33-7.6L359.33-7.6Q362.28-7.6 362.28-12.48 362.28-17.35 359.33-17.35L359.33-17.35Q358.18-17.35 357.25-16.57 356.33-15.8 356.33-14.4L356.33-14.4 356.33-10.55Q356.33-9.15 357.25-8.38 358.18-7.6 359.33-7.6ZM343.33-25.45L343.33-25.45 352.53-25.4Q353.73-25.4 354.63-24.68 355.53-23.95 355.58-22.6L355.58-22.6Q357.53-24.35 360.3-25.25 363.08-26.15 365.78-26.15L365.78-26.15Q370.48-26.15 373.48-22.83 376.48-19.5 376.48-12.75L376.48-12.75Q376.48-8.9 375.43-6.18 374.38-3.45 372.58-2L372.58-2Q369.13 0.65 364.35 0.65 359.58 0.65 356.88-2.45L356.88-2.45Q356.53-2.8 356.35-2.65 356.18-2.5 356.18-2.2L356.18-2.2Q356.18 1.35 355.88 5.55L355.88 5.55Q355.78 7.2 355.23 7.93 354.68 8.65 352.98 8.65L352.98 8.65 343.38 8.65Q341.73 8.65 341.15 7.85 340.58 7.05 340.53 5.4L340.53 5.4Q340.43 0.65 340.43-6.75L340.43-6.75 340.53-23.1Q340.53-24.1 341.45-24.78 342.38-25.45 343.33-25.45ZM384.17-25.3L384.17-25.3 393.92-25.3Q395.62-25.3 396.2-24.55 396.77-23.8 396.95-21.23 397.12-18.65 397.12-11.83 397.12-5 396.82-2.2L396.82-2.2Q396.67-1.35 395.97-0.7 395.27-0.05 393.5 0.08 391.72 0.2 389.27 0.2 386.82 0.2 384.82 0.08 382.82-0.05 382.12-0.7 381.42-1.35 381.32-2.2L381.32-2.2Q380.97-5.45 380.97-12.18 380.97-18.9 381.17-21.35 381.37-23.8 381.92-24.55 382.47-25.3 384.17-25.3ZM389.57-37.1L389.57-37.1Q392.87-37.1 394.55-35.77 396.22-34.45 396.22-32.15L396.22-32.15Q396.22-26.75 389.02-26.75L389.02-26.75Q386.12-26.75 384.07-28 382.02-29.25 382.02-31.75L382.02-31.75Q382.02-37.1 389.57-37.1Z" fill="#ee7ddc" data-fill-palette-color="accent"></path></g></svg></g></svg></g></svg></g></svg></g><g><svg viewBox="0 0 109.49240229748497 109.49240229748497" height="109.49240229748497" width="109.49240229748497"><g><svg></svg></g><g id="icon-0"><svg viewBox="0 0 109.49240229748497 109.49240229748497" height="109.49240229748497" width="109.49240229748497"><g><path d="M0 54.746c0-30.235 24.511-54.746 54.746-54.746 30.235 0 54.746 24.511 54.746 54.746 0 30.235-24.511 54.746-54.746 54.746-30.235 0-54.746-24.511-54.746-54.746zM54.746 105.251c27.893 0 50.505-22.612 50.505-50.505 0-27.893-22.612-50.505-50.505-50.505-27.893 0-50.505 22.612-50.505 50.505 0 27.893 22.612 50.505 50.505 50.505z" data-fill-palette-color="accent" fill="#ee7ddc" stroke="transparent"></path></g><g transform="matrix(1,0,0,1,30.779306214492774,27.675888193559267)"><svg viewBox="0 0 47.933789868499424 54.14062591036644" height="54.14062591036644" width="47.933789868499424"><g><svg xmlns="http://www.w3.org/2000/svg" data-name="Glyph Icon" viewBox="7.21 4 49.58 56" x="0" y="0" height="54.14062591036644" width="47.933789868499424" class="icon-cg-0" data-fill-palette-color="accent" id="cg-0"><path d="M49.13 20.84l-16-9.26V4L55.7 17.05ZM32 50.52L16 41.26V22.74l16-9.26 16 9.26V41.26ZM30.91 11.58l-16 9.26L8.3 17.05 30.91 4ZM13.77 22.74V41.26L7.21 45.05V19Zm1.1 20.42l16 9.26V60L8.3 47Zm18.22 9.26l16-9.26L55.7 47 33.09 60ZM50.23 41.26V22.74L56.79 19v26.1Z" fill="#ee7ddc" data-fill-palette-color="accent"></path></svg></g></svg></g></svg></g></svg></g></svg></g><defs></defs></svg><rect width="395.52" height="82.14128886287234" fill="none" stroke="none" visibility="hidden"></rect></g></svg></g></svg>